<?xml version="1.0" encoding="UTF-8"?>
<svg id="Capa_1" xmlns="http://www.w3.org/2000/svg" version="1.1" viewBox="0 0 1741.7 343.4">
  <!-- Generator: Adobe Illustrator 30.2.1, SVG Export Plug-In . SVG Version: 2.1.1 Build 1)  -->
  <defs>
    <style>
      .st0 {
        fill: #0d98ff;
      }
    </style>
  </defs>
  <path class="st0" d="M48.5,160c0,66.5,47,133.8,136.7,133.8s70.5-13.3,94.9-42c24-28.3,29.7-55,30.1-88h-122.4v38.1h78.2l-3,6.5c-14.8,31.6-39.6,46.9-75.7,46.9-54.9,0-97.9-41.6-97.9-94.6s41.5-92.8,94.6-92.8,54.3,10.7,77.4,33.7l28.5-28.1c-29.2-30.4-62.1-44-106.2-44-77.1,0-135.3,56.1-135.3,130.5Z"/>
  <g>
    <path class="st0" d="M682.4,289c-12.7,0-24.3-2.1-34.7-6.4-10.5-4.3-19.4-10.2-26.9-17.6-7.5-7.5-13.2-16.4-17.2-26.6s-6-21.4-6-33.3,2-23.8,6-34.1c4-10.4,9.7-19.2,17-26.6,7.3-7.4,16.1-13.1,26.2-17.2,10.1-4.1,21.2-6.1,33.2-6.1s22.9,2,32.7,6.1c9.8,4.1,18.2,9.6,25.2,16.7,7,7.1,12.5,15.4,16.4,25,3.9,9.6,5.8,20,5.8,31.1s-.1,4.9-.3,7.5c-.2,2.7-.6,5.2-1,7.5h-130.9c1.8,14.8,7.5,26.5,17,35.1,9.6,8.7,22.5,13,38.7,13s21.8-2.6,31.4-7.9c9.6-5.2,17.2-12,23-20.4l18.4,18.3c-8.5,10.9-18.9,19.6-31.4,26.1-12.5,6.5-26.7,9.8-42.7,9.8ZM680,146.3c-13.8,0-25.3,3.9-34.4,11.7-9.1,7.8-14.9,18.8-17.4,32.9h101.5c-1.1-13.9-6.3-24.8-15.5-32.7-9.2-7.9-20.6-11.9-34.2-11.9Z"/>
    <path class="st0" d="M794.5,57.5h30v227.7h-30V57.5Z"/>
    <path class="st0" d="M945.4,289c-12.7,0-24.3-2.1-34.7-6.4-10.5-4.3-19.4-10.2-26.9-17.6-7.5-7.5-13.2-16.4-17.2-26.6s-6-21.4-6-33.3,2-23.8,6-34.1c4-10.4,9.7-19.2,17-26.6s16.1-13.1,26.2-17.2c10.1-4.1,21.2-6.1,33.2-6.1s22.9,2,32.7,6.1c9.8,4.1,18.2,9.6,25.2,16.7,7,7.1,12.5,15.4,16.4,25,3.9,9.6,5.8,20,5.8,31.1s-.1,4.9-.3,7.5c-.2,2.7-.6,5.2-1,7.5h-130.9c1.8,14.8,7.5,26.5,17,35.1,9.6,8.7,22.5,13,38.7,13s21.8-2.6,31.4-7.9c9.6-5.2,17.2-12,23-20.4l18.4,18.3c-8.5,10.9-18.9,19.6-31.4,26.1-12.5,6.5-26.7,9.8-42.7,9.8ZM943.1,146.3c-13.8,0-25.3,3.9-34.4,11.7-9.1,7.8-14.9,18.8-17.4,32.9h101.5c-1.1-13.9-6.3-24.8-15.5-32.7-9.2-7.9-20.6-11.9-34.2-11.9Z"/>
    <path class="st0" d="M1132.7,288.7c-13.1,0-24.9-2.2-35.4-6.6-10.5-4.4-19.4-10.4-26.9-18-7.5-7.6-13.2-16.5-17.2-26.8s-6-21.2-6-32.7,2-22.4,6-32.5c4-10.2,9.7-19,17.2-26.6,7.5-7.6,16.4-13.6,26.9-18,10.5-4.4,22.3-6.6,35.4-6.6s31.3,3.6,43.7,10.7c12.5,7.2,22.5,17.2,30,30l-22.4,15.1c-5.1-9-12-16.1-20.5-21.5-8.6-5.3-18.5-8-29.9-8s-15.4,1.3-22.2,4c-6.8,2.7-12.7,6.5-17.7,11.5-5,5-8.9,11.1-11.7,18.1-2.8,7.1-4.2,15-4.2,23.7s1.4,17,4.2,24c2.8,7.1,6.7,13.1,11.7,18.1,5,5,10.9,8.9,17.7,11.5,6.8,2.7,14.2,4,22.2,4,11.3,0,21.3-2.7,29.9-8,8.6-5.3,15.4-12.5,20.5-21.5l22.4,15.1c-7.6,12.8-17.6,22.8-30,30-12.5,7.2-27,10.7-43.7,10.7Z"/>
    <path class="st0" d="M1308.6,286.7c-19.1,0-33.5-4.6-43.2-13.9-9.7-9.3-14.5-24-14.5-44.1v-80.5h-29v-23.7h29.7v-41.7h29.4v41.7h41.1v23.7h-41.1v81.4c0,12,2.8,20.3,8.5,25,5.7,4.7,14.7,7.1,27.2,7.1h5.3v23.7c-1.8.4-3.8.7-6.2,1-2.3.2-4.7.3-7.2.3Z"/>
    <path class="st0" d="M1353.7,124.5h30v27.6c4.7-9,11.4-16.4,20.2-22.3,8.8-5.9,19.6-8.8,32.5-8.8h3.7v27.9c-13.6.4-25.3,3.4-35.1,9-9.8,5.6-16.9,14.6-21.4,27.3v100h-30V124.5Z"/>
    <path class="st0" d="M1466.8,53.3h32.4v34.6h-32.4v-34.6ZM1468.2,124.5h30v160.6h-30V124.5Z"/>
    <path class="st0" d="M1619.4,288.7c-13.1,0-24.9-2.2-35.4-6.6-10.5-4.4-19.4-10.4-26.9-18-7.5-7.6-13.2-16.5-17.2-26.8s-6-21.2-6-32.7,2-22.4,6-32.5c4-10.2,9.7-19,17.2-26.6,7.5-7.6,16.4-13.6,26.9-18,10.5-4.4,22.3-6.6,35.4-6.6s31.3,3.6,43.7,10.7c12.5,7.2,22.5,17.2,30,30l-22.4,15.1c-5.1-9-12-16.1-20.5-21.5-8.6-5.3-18.5-8-29.9-8s-15.4,1.3-22.2,4c-6.8,2.7-12.7,6.5-17.7,11.5-5,5-8.9,11.1-11.7,18.1-2.8,7.1-4.2,15-4.2,23.7s1.4,17,4.2,24c2.8,7.1,6.7,13.1,11.7,18.1,5,5,10.9,8.9,17.7,11.5,6.8,2.7,14.2,4,22.2,4,11.3,0,21.3-2.7,29.9-8,8.6-5.3,15.4-12.5,20.5-21.5l22.4,15.1c-7.6,12.8-17.6,22.8-30,30-12.5,7.2-27,10.7-43.7,10.7Z"/>
  </g>
  <path class="st0" d="M458.9,80.1c4.6,9.2,14.1,13.7,22.1,19.3l33-48.2c.1-.9,2.4,1-4.9-4.2-7.3-5.2-14.5-10-23.9-10h0c-22,.1-36,23.3-26.2,43Z"/>
  <path class="st0" d="M515.1,76.5l8.1-12.2c5.4,3.2,17,8.9,11.2,16.6-6,7.9-13.6-1.8-19.3-4.4h0Z"/>
  <path class="st0" d="M496.5,103.4l8.1-12.2c.6,0,9.4,6,10.2,6.8,4.9,4.9,2.1,12.8-4.9,12.7-7,0-9.3-5.6-13.4-7.4h0Z"/>
  <path class="st0" d="M542,131.9c-.9-3.8-2.3-10.1-8.6-13.1-4-1.9-8.8-1.8-13,.6-4.2,2.3-7,6.2-7.4,10.4-.4,3.6.7,8.3,1.8,12.7.5,1.9.9,3.8,1.1,5.2,4.2,30-5.4,60.5-26.5,83.5-21,23-50.6,35.5-80.8,33.8-45.7-2.3-83-32.4-94.8-76.7-9.4-35-2.8-83.3,43.8-113.5,24.7-15.9,55-20.7,83.3-13.1l1.5.4c.7-6.4,2.5-12.6,6-18.3,1.7-2.7,3.8-5.1,5.9-7.4l-3.8-1.2c-32.9-10.5-68.4-6.7-100,10.7-32.2,17.7-55.8,47.3-64.8,81.4-12.4,46.9,1.1,95.1,36.1,129,25.3,24.5,57.8,37.5,91.4,37.5s25.9-1.9,38.8-5.8c64.5-19.5,105.8-90.5,90-156.1Z"/>
  <path class="st0" d="M445.9,101l-30.3,50.6,30.3.2-60.5,85.2,28.9-71-33.2.8s-.4,0-.3-.3l65.2-65.5h0Z"/>
</svg>