<?xml version="1.0" encoding="UTF-8"?>
<!--
  Voltika horizontal logo: V-shield icon (left) + "voltika" wordmark (right)
  Derived from the original voltika_logo.svg by repositioning the two elements
  side-by-side. ViewBox: 0 0 1575 260
-->
<svg id="voltika-logo-h" xmlns="http://www.w3.org/2000/svg" viewBox="0 0 1575 260">
  <defs>
    <style>.st0 { fill: #1d1d1b; }</style>
  </defs>

  <!-- V-shield icon — original coords x:493-1146, y:131-595; scaled 0.560, shifted to (0,0) -->
  <g transform="translate(-276,-73) scale(0.560)">
    <path class="st0" d="M1071.7,226.2c-21.7-17.2-45.5-28.6-68.3-38.1,0,0,0-.1,0-.2l-.8-5.5,8.8-9.3-15.1-14.5-1.1,1.2c-8.8-7.2-21.2-15.8-35.9-22-4.4-2.2-9.2-4.4-15.9-6.7l-.9-.3-.5.8c-.2.2-.3.5-.5.7-13.3-5.1-29.4-10.3-48.4-14.8-76.3-17.8-138.6-17.8-214.9,0-18,4.2-33.3,9-46.1,13.9l-.4-.6-.9.3q-7.7,2.6-18.4,6.9l-1.5.6.6.9c-10.1,4.4-22.5,10.9-33.4,19.8l-.7-.7-15,14.6,7.9,8.5-.9,6.1c0,.1,0,.3,0,.6-21.8,9.1-46,20.7-67.5,37.8l-.9.7,11.1,17.3,1-.5c16.4-8.1,33.9-15.3,54-22.1-1,51.6,7.4,154.5,76.6,255.5,50.4,73.5,120.2,115.7,138.2,119.3l4.7.9,4.7-.9c18-3.6,87.9-45.8,138.2-119.3,69.3-101.1,77.7-204,76.6-255.6,13,4.8,25.6,9.7,39,14.9,5.5,2.1,11,4.3,16.5,6.4l1,.4,10.3-16.3-.9-.7ZM774.3,467.4l18.8-44.7,60.4-47.4-54,82.6h10.2c0,0-40.7,49.4-40.7,49.4l17.4-40.3-12.1.4ZM795.3,540.4c38.4-83.9,76.2-166.6,114-249.3-.3-.2-.6-.4-1-.5-40.4,41.7-80.9,83.4-121.7,125.5-41-42.3-81.4-84-121.8-125.6-.3.2-.6.4-.9.6,38.1,83.3,76.3,166.7,114.9,251.1-4.7-2.6-10.9-6.3-18.1-11.2-22.9-16.9-53.5-44.2-78.4-80.5-59.6-87-68.4-177-68.2-223.4,30.4,31.5,60.9,62.9,91.3,94.4,24.7,25.5,49.3,50.9,74,76.4,1.3,1.3,2.2,3.1,3,4.6.4.7.8,1.4,1.1,2l.8,1.3,1.1-1.1c2.6-2.5,5-4.8,7.3-6.9,4.5-4.3,8.4-7.9,12.2-11.8,60.7-62.5,108.6-111.9,153.2-158,0,46.6-8.9,136.1-68.2,222.6-18,26.2-38.9,47.8-57.8,64.1-14.8,12-28,20.7-37,25.9ZM883.6,177.3c8,1.9,15.4,3.9,22.2,6-14.2,20.4-28.1,40.4-41.7,60.1-24.8,35.8-50.4,72.8-77.4,111.3-27-38.5-52.4-75.5-77.1-111.2-13.6-19.8-27.5-40-41.8-60.5,6.5-2,13.5-3.9,21.1-5.6,50.6-11.8,109.1-20,194.7,0Z"/>
  </g>

  <!-- "voltika" wordmark — original coords x:191-1401, y:629-898; scaled 0.966, shifted to x=406,y=0 -->
  <g transform="translate(222,-608) scale(0.966)">
    <path class="st0" d="M388,714.1l-77.8,178.5h-41l-77.8-178.5h53l45.3,119.7,45.3-119.7h53Z"/>
    <path class="st0" d="M398.8,804c0-54.2,40.3-94.5,98.4-94.5s98.4,40.3,98.4,94.5-40.3,94.1-98.4,94.1-98.4-40.3-98.4-94.1ZM544,804c0-30.2-19.7-52.3-46.9-52.3s-46.9,22.1-46.9,52.3,19.4,51.9,46.9,51.9,46.9-21.7,46.9-51.9Z"/>
    <path class="st0" d="M632.3,629.3h50v263.3h-50v-263.3Z"/>
    <path class="st0" d="M840.3,752.1h-44.1v140.6h-50v-140.6h-27.1v-37.9h27.1v-51.5h50v51.5h44.1v37.9Z"/>
    <path class="st0" d="M872.4,658.8c0-15.5,13.2-28.3,29-28.3s29.4,12.8,29.4,28.3-13.2,28.3-29.4,28.3-29-12.8-29-28.3ZM877,714.1h50v178.5h-50v-178.5Z"/>
    <path class="st0" d="M1097,892.6l-69.3-80.2v80.2h-50v-263.3h50v149.9l59.2-65.1h63.5l-79,81.3,89.4,97.2h-63.9Z"/>
    <path class="st0" d="M1361.4,714.1v178.5h-41.4l-5.8-22.1c-13.2,15.5-32.5,25.9-58.9,25.9-46.5,0-82.9-34.5-82.9-93.3s36.4-93.7,82.9-93.7,45.7,10.8,59.2,26.7l5.8-22.1h41ZM1315.4,803.2c0-30.6-19-51.5-46.5-51.5s-45.3,20.9-45.3,51.5,18.6,51.1,45.3,51.1,46.5-20.9,46.5-51.1Z"/>
  </g>
</svg>
