<?xml version="1.0" encoding="UTF-8" standalone="no"?>
<svg
   width="145.091"
   height="60.040001"
   viewBox="0 0 145.091 60.040001"
   fill="none"
   version="1.1"
   id="svg17"
   sodipodi:docname="logo-truora-white-beta.svg"
   xmlns:inkscape="http://www.inkscape.org/namespaces/inkscape"
   xmlns:sodipodi="http://sodipodi.sourceforge.net/DTD/sodipodi-0.dtd"
   xmlns="http://www.w3.org/2000/svg"
   xmlns:svg="http://www.w3.org/2000/svg">
  <defs
     id="defs17" />
  <sodipodi:namedview
     id="namedview17"
     pagecolor="#ffffff"
     bordercolor="#000000"
     borderopacity="0.25"
     inkscape:showpageshadow="2"
     inkscape:pageopacity="0.0"
     inkscape:pagecheckerboard="0"
     inkscape:deskcolor="#d1d1d1" />
  <path
     d="m 24.0427,27.66 -2.2173,-2.11 c -0.527,-0.5 -0.8352,-1.2 -0.8651,-1.94 -0.0298,-0.74 0.2287,-1.46 0.7259,-2 l 2.4162,2.3 6.5426,-5.7 c 1.1435,-1 2.8636,-0.86 3.848,0.3 l -10.4503,9.13 z"
     fill="#ffffff"
     id="path1" />
  <path
     d="M 21.6662,0 H 12.7969 C 5.71733,0.06 0,5.94 0,13.17 H 12.1009 C 12.3196,7 16.2571,1.87 21.6662,0 Z"
     fill="#ffffff"
     id="path2" />
  <path
     d="m 12.8765,21.91 c 1.8593,-5.16 6.8906,-8.98 12.6377,-8.98 H 25.902 C 32.4446,12.88 37.9929,7.03 38.3211,0 H 26.1009 C 18.9418,0.06 13.1449,5.84 12.8765,13.17 Z"
     fill="#ffffff"
     id="path3" />
  <path
     d="m 25.8026,16.08 v -2.37 h -0.2884 c -6.8309,0 -12.6079,5.71 -12.6377,12.48 v 13.44 c 5.3494,0 10.142,-3.37 12.061,-8.47 h -0.348 c -2.794,0 -5.3593,-1.6 -6.6221,-4.16 -1.2628,-2.55 -1.0142,-5.62 0.6363,-7.93 1.6605,-2.31 4.4446,-3.46 7.1989,-2.99 z"
     fill="#ffffff"
     id="path4" />
  <path
     d="m 104.324,14.59 c 1.183,0 2.346,0.23 3.43,0.7 1.044,0.46 1.989,1.11 2.794,1.93 0.796,0.82 1.442,1.79 1.879,2.86 0.468,1.11 0.696,2.31 0.696,3.51 0,1.2 -0.228,2.39 -0.696,3.49 -0.447,1.07 -1.083,2.04 -1.879,2.86 -0.795,0.83 -1.75,1.49 -2.794,1.94 -2.197,0.94 -4.673,0.94 -6.871,0 -1.0337,-0.46 -1.9783,-1.12 -2.7638,-1.94 -0.7954,-0.83 -1.4318,-1.8 -1.8792,-2.86 -0.4674,-1.1 -0.6961,-2.29 -0.6961,-3.49 0,-1.21 0.2287,-2.4 0.6961,-3.51 0.4375,-1.07 1.0738,-2.04 1.8792,-2.86 0.7955,-0.81 1.7401,-1.47 2.7638,-1.93 1.084,-0.47 2.258,-0.71 3.431,-0.7 z m -22.273,0.33 v 9.42 c 0,2.74 1.4617,3.85 3.4106,3.85 1.9488,0 3.4204,-1.13 3.4204,-3.85 v -9.41 h 4.4844 v 9.82 c 0,5.41 -3.7287,7.74 -7.9048,7.74 -4.1762,0 -7.9148,-2.33 -7.9148,-7.74 v -9.83 h 4.5142 z m 58.267,1.63 0.139,0.17 c 0,-1.04 0.836,-1.89 1.86,-1.89 h 2.565 v 17.1 h -4.425 v -1.89 c -1.213,1.53 -3.072,2.4 -5.011,2.33 -4.634,0 -8.134,-3.86 -8.134,-8.99 0,-5.13 3.5,-9 8.134,-9 1.869,-0.07 3.659,0.74 4.872,2.18 z M 64.1136,7.23999 c 0,2.55 -2.0285,4.62001 -4.5242,4.62001 H 56.5866 V 27.1 c 0,2.67 -2.0782,4.85 -4.6733,4.94 H 51.7442 V 11.86 h -7.4971 c 0,-2.55001 2.0284,-4.62001 4.5241,-4.62001 z M 75.6874,14.74 75.0113,19.32 c -0.8651,-0.37 -1.7997,-0.56 -2.7344,-0.57 -2.098,0 -3.5298,1.31 -3.5298,3.86 v 4.71 c 0,1.22 -0.4773,2.4 -1.3225,3.26 -0.7954,0.81 -1.8593,1.29 -2.9829,1.35 h -0.2088 v -17.1 h 4.375 v 1.87 c 1.0539,-1.61 2.6647,-2.33 4.7329,-2.33 0.7955,-0.02 1.5909,0.11 2.3466,0.37 z m 50.9686,0 -0.676,4.58 c -0.865,-0.37 -1.8,-0.56 -2.734,-0.57 -2.098,0 -3.53,1.31 -3.53,3.86 v 4.71 c 0,1.22 -0.477,2.4 -1.323,3.26 -0.795,0.81 -1.859,1.29 -2.983,1.35 h -0.208 v -17.1 h 4.385 v 1.87 c 1.054,-1.61 2.664,-2.33 4.723,-2.33 0.795,-0.02 1.6,0.11 2.356,0.37 z m -22.332,4.08 c -1.233,-0.02 -2.416,0.47 -3.281,1.38 -0.895,0.89 -1.3925,2.12 -1.3826,3.4 0,0.62 0.1193,1.23 0.3576,1.8 0.249,0.58 0.597,1.1 1.015,1.56 0.855,0.91 2.038,1.42 3.281,1.41 0.606,0 1.213,-0.12 1.78,-0.36 0.566,-0.24 1.083,-0.6 1.501,-1.05 1.332,-1.36 1.74,-3.4 1.014,-5.18 -0.716,-1.78 -2.416,-2.94 -4.295,-2.94 z m 31.927,-0.17 c -2.585,0 -4.335,2.1 -4.335,4.71 0,2.61 1.671,4.71 4.335,4.71 2.665,0 4.336,-2.01 4.336,-4.71 0,-2.7 -1.75,-4.71 -4.336,-4.71 z"
     fill="#ffffff"
     id="path5" />
  <path
     d="m 48.4431,40 v 2.35 h -2.3665 v 14.36 h 2.3665 v 2.36 h -5.071 V 40 Z"
     fill="#5584eb"
     id="path6" />
  <path
     d="m 58.7342,44.34 c 0.9346,0.5 1.6605,1.2 2.1676,2.1 0.517,0.9 0.7656,1.94 0.7656,3.12 0,1.18 -0.2585,2.2 -0.7656,3.11 -0.5171,0.91 -1.2429,1.61 -2.1776,2.11 -0.9446,0.5 -2.0284,0.75 -3.2713,0.75 H 51.0083 V 43.6 h 4.4446 c 1.2528,0 2.3466,0.25 3.2813,0.75 z m -0.9148,7.77 c 0.6065,-0.6 0.9148,-1.45 0.9148,-2.55 0,-1.1 -0.3083,-1.95 -0.9148,-2.57 -0.6066,-0.62 -1.4617,-0.92 -2.5554,-0.92 H 53.8918 V 53 h 1.3722 c 1.0937,0 1.9389,-0.3 2.5554,-0.9 z"
     fill="#5584eb"
     id="path7" />
  <path
     d="M 72.1276,51.48 H 65.585 c 0.0497,0.59 0.2386,1.04 0.5668,1.35 0.3281,0.31 0.7358,0.47 1.223,0.47 0.7159,0 1.223,-0.31 1.5014,-0.92 h 3.0724 c -0.159,0.62 -0.4375,1.18 -0.8551,1.68 -0.4076,0.5 -0.9247,0.89 -1.5412,1.17 -0.6164,0.28 -1.3125,0.42 -2.0781,0.42 -0.9247,0 -1.75,-0.2 -2.4659,-0.59 -0.7259,-0.4 -1.2827,-0.96 -1.6903,-1.7 -0.4077,-0.74 -0.6066,-1.6 -0.6066,-2.58 0,-0.98 0.1989,-1.85 0.5966,-2.58 0.3977,-0.74 0.9645,-1.3 1.6804,-1.7 0.7159,-0.4 1.5512,-0.59 2.4858,-0.59 0.9347,0 1.7202,0.19 2.4361,0.58 0.706,0.39 1.2628,0.93 1.6605,1.65 0.3977,0.71 0.5966,1.55 0.5966,2.5 0,0.27 -0.0199,0.56 -0.0497,0.85 z m -2.9034,-1.61 c 0,-0.5 -0.169,-0.89 -0.5071,-1.19 -0.3381,-0.29 -0.7557,-0.44 -1.2628,-0.44 -0.5071,0 -0.8949,0.14 -1.223,0.42 -0.3281,0.28 -0.5369,0.69 -0.6165,1.21 h 3.6194 z"
     fill="#5584eb"
     id="path8" />
  <path
     d="m 77.9446,52.8 2.0483,-6.76 h 3.0725 l -3.3409,9.48 H 76.1549 L 72.814,46.04 h 3.0923 l 2.0483,6.76 z"
     fill="#5584eb"
     id="path9" />
  <path
     d="m 93.1179,51.48 h -6.5427 c 0.0498,0.59 0.2387,1.04 0.5668,1.35 0.3281,0.31 0.7358,0.47 1.223,0.47 0.7159,0 1.223,-0.31 1.5014,-0.92 h 3.0725 c -0.1591,0.62 -0.4375,1.18 -0.8551,1.68 -0.4077,0.5 -0.9248,0.89 -1.5412,1.17 -0.6165,0.28 -1.3125,0.42 -2.0782,0.42 -0.9247,0 -1.75,-0.2 -2.4659,-0.59 -0.7258,-0.4 -1.2826,-0.96 -1.6903,-1.7 -0.4077,-0.74 -0.6065,-1.6 -0.6065,-2.58 0,-0.98 0.1988,-1.85 0.5965,-2.58 0.3978,-0.74 0.9645,-1.3 1.6804,-1.7 0.716,-0.4 1.5512,-0.59 2.4858,-0.59 0.9347,0 1.7202,0.19 2.4361,0.58 0.706,0.39 1.2628,0.93 1.6605,1.65 0.3978,0.71 0.5966,1.55 0.5966,2.5 0,0.27 -0.0199,0.56 -0.0497,0.85 z m -2.9035,-1.61 c 0,-0.5 -0.169,-0.89 -0.5071,-1.19 -0.338,-0.29 -0.7556,-0.44 -1.2627,-0.44 -0.5071,0 -0.8949,0.14 -1.2231,0.42 -0.3281,0.28 -0.5369,0.69 -0.6164,1.21 h 3.6193 z"
     fill="#5584eb"
     id="path10" />
  <path
     d="m 97.5722,42.9401 v 12.58 h -2.8935 v -12.58 z"
     fill="#5584eb"
     id="path11" />
  <path
     d="m 101.47,55.06 c -0.736,-0.4 -1.322,-0.96 -1.7399,-1.7 -0.4176,-0.74 -0.6363,-1.6 -0.6363,-2.58 0,-0.98 0.2088,-1.83 0.6463,-2.57 0.4279,-0.74 1.0139,-1.31 1.7599,-1.71 0.746,-0.4 1.581,-0.59 2.506,-0.59 0.924,0 1.76,0.2 2.505,0.59 0.746,0.39 1.333,0.97 1.76,1.71 0.428,0.74 0.647,1.6 0.647,2.57 0,0.97 -0.219,1.83 -0.647,2.57 -0.437,0.74 -1.024,1.31 -1.77,1.71 -0.745,0.4 -1.581,0.59 -2.505,0.59 -0.925,0 -1.75,-0.2 -2.496,-0.59 z m 3.908,-2.53 c 0.388,-0.41 0.586,-0.99 0.586,-1.75 0,-0.76 -0.188,-1.34 -0.566,-1.75 -0.378,-0.41 -0.845,-0.61 -1.392,-0.61 -0.547,0 -1.034,0.2 -1.402,0.6 -0.368,0.4 -0.557,0.99 -0.557,1.76 0,0.77 0.179,1.34 0.547,1.75 0.368,0.41 0.825,0.61 1.382,0.61 0.557,0 1.024,-0.2 1.412,-0.61 z"
     fill="#5584eb"
     id="path12" />
  <path
     d="m 114.496,46.31 c 0.497,-0.27 1.074,-0.41 1.74,-0.41 0.775,0 1.481,0.2 2.108,0.59 0.626,0.4 1.133,0.96 1.491,1.7 0.368,0.74 0.547,1.59 0.547,2.57 0,0.98 -0.179,1.83 -0.547,2.57 -0.368,0.74 -0.865,1.31 -1.491,1.72 -0.627,0.4 -1.333,0.6 -2.108,0.6 -0.656,0 -1.233,-0.14 -1.73,-0.41 -0.497,-0.27 -0.895,-0.62 -1.174,-1.05 v 5.85 h -2.893 v -14 h 2.893 v 1.34 c 0.279,-0.44 0.667,-0.8 1.164,-1.07 z m 2.356,2.74 c -0.397,-0.41 -0.895,-0.62 -1.481,-0.62 -0.587,0 -1.064,0.21 -1.462,0.63 -0.398,0.42 -0.596,0.99 -0.596,1.72 0,0.73 0.198,1.3 0.596,1.72 0.398,0.42 0.885,0.63 1.462,0.63 0.576,0 1.064,-0.21 1.471,-0.64 0.408,-0.42 0.607,-1 0.607,-1.72 0,-0.72 -0.199,-1.29 -0.597,-1.71 z"
     fill="#5584eb"
     id="path13" />
  <path
     d="M 130.743,51.48 H 124.2 c 0.05,0.59 0.239,1.04 0.567,1.35 0.328,0.31 0.736,0.47 1.223,0.47 0.716,0 1.223,-0.31 1.501,-0.92 h 3.073 c -0.159,0.62 -0.438,1.18 -0.855,1.68 -0.408,0.5 -0.925,0.89 -1.541,1.17 -0.617,0.28 -1.313,0.42 -2.079,0.42 -0.924,0 -1.75,-0.2 -2.465,-0.59 -0.726,-0.4 -1.283,-0.96 -1.691,-1.7 -0.407,-0.74 -0.606,-1.6 -0.606,-2.58 0,-0.98 0.199,-1.85 0.596,-2.58 0.398,-0.74 0.965,-1.3 1.681,-1.7 0.716,-0.4 1.551,-0.59 2.485,-0.59 0.935,0 1.721,0.19 2.437,0.58 0.705,0.39 1.262,0.93 1.66,1.65 0.398,0.71 0.597,1.55 0.597,2.5 0,0.27 -0.02,0.56 -0.05,0.85 z m -2.904,-1.61 c 0,-0.5 -0.169,-0.89 -0.507,-1.19 -0.338,-0.29 -0.755,-0.44 -1.262,-0.44 -0.508,0 -0.895,0.14 -1.223,0.42 -0.329,0.28 -0.537,0.69 -0.617,1.21 h 3.619 z"
     fill="#5584eb"
     id="path14" />
  <path
     d="m 136.47,46.3901 c 0.507,-0.3 1.074,-0.45 1.691,-0.45 v 3.08 h -0.796 c -0.726,0 -1.263,0.16 -1.621,0.47 -0.358,0.31 -0.537,0.86 -0.537,1.64 v 4.4 h -2.893 v -9.48 h 2.893 v 1.58 c 0.338,-0.52 0.756,-0.93 1.263,-1.23 z"
     fill="#5584eb"
     id="path15" />
  <path
     d="m 145.091,59.07 h -5.071 v -2.36 h 2.366 V 42.35 H 140.02 V 40 h 5.071 z"
     fill="#5584eb"
     id="path16" />
</svg>
