<svg xmlns="http://www.w3.org/2000/svg" viewBox="0 0 200 32" width="200" height="32">
  <g transform="translate(0,2)">
    <!-- Shield icon (simplified) -->
    <path d="M14 2C10.5 3.5 7 4 3 4v9c0 5.5 3.8 10.7 11 14 7.2-3.3 11-8.5 11-14V4c-4 0-7.5-.5-11-2z" fill="#00B140" opacity="0.9"/>
    <path d="M14 6c-2.5 1-5 1.5-8 1.5v6.5c0 4 2.8 7.8 8 10.2 5.2-2.4 8-6.2 8-10.2V7.5c-3 0-5.5-.5-8-1.5z" fill="#fff" opacity="0.3"/>
    <path d="M11 14l2 2 4-4" stroke="#fff" stroke-width="1.5" fill="none" stroke-linecap="round" stroke-linejoin="round"/>
  </g>
  <!-- "crédito" text -->
  <text x="30" y="18" font-family="Inter,Arial,sans-serif" font-size="13" font-weight="400" fill="#333" letter-spacing="0.5">cr&#233;dito</text>
  <!-- "voltika" text -->
  <text x="78" y="18" font-family="Inter,Arial,sans-serif" font-size="13" font-weight="800" fill="#00B140" letter-spacing="0.5">voltika</text>
</svg>
