<?xml version="1.0" encoding="UTF-8"?>
<svg id="Capa_1" xmlns="http://www.w3.org/2000/svg" version="1.1" viewBox="0 0 500 500">
  <!-- Generator: Adobe Illustrator 30.2.1, SVG Export Plug-In . SVG Version: 2.1.1 Build 1)  -->
  <g id="DgHOFR.tif">
    <g>
      <path d="M76.3,185c-47.4-29-42.3-85-36.4-87.9s4.2-.2,5.1.7l34,33.6c1.9,1.8,4.9,2.8,7.4,2.1l32.8-8.2c3.4-.9,5-3,5.9-6.3l8.1-31.2c.7-2.8.5-5.9-1.6-8.1l-33.7-34.3c-1-1-1.5-3.8-1.1-5.1s2.5-2.4,4.2-2.7c28.4-4.5,56.2,5.9,74.8,27,18.7,21.2,25.5,50.6,16.8,78s-1.5,7.2,2,10.5l256.4,241.6c19.2,18.1,14.7,50.3-6.3,64.2-16.4,10.9-39.6,9.5-53.6-5.2L147.2,197c-2.4-2.5-5.1-3.7-8.5-2.9-21.5,5.2-43.6,2.4-62.5-9.1ZM412.9,424.7c6.5,0,10-5.6,9-11.3-1.3-7.6-7.6-13.8-15.3-14.7-6-.7-11.1,3.5-10.6,9.7.6,8.6,7.9,16.2,16.9,16.3Z"/>
      <path d="M423.8,119.6l33.2-34.5c.6-.7,3.2-1.1,4-.8s2.5,2,2.8,3.3c6.2,27-2.4,54.8-21.7,73.7-19.8,19.3-47.8,27-74.9,20.1-3-.3-5.6.6-7.7,2.8l-55.3,58.6-47.2-43.7,55.2-58.5c1.3-2.4,1.5-4.8.8-7.5-10.2-26.9-5.2-56.8,13-78.7,17.7-21.3,46.2-32.2,74.1-27.2,1.1.2,2.9,1.9,3.2,2.8s-.2,3.6-1.1,4.6l-31.8,34.1c-2,2.1-2.3,5-1.5,7.7l9.7,32.3c.7,2.3,3.2,4.3,5.5,4.9l34.1,8.1c1.3.3,4.3-.7,5.5-2Z"/>
      <path d="M121.5,392.1c-.8-2.7-2.9-4.9-5.4-5.5l-33.2-7.9c-2.1-.5-5.2.3-6.8,1.9l-32.9,34.5c-.8.8-3.2,1.1-4.1.7s-2.6-2.1-2.8-3.2c-6.5-27.7,2.6-56.3,23-75.3,20.6-19.3,49.8-26.1,77.3-17.7,3.3,1,6.7.4,9-2.3l51.2-54.2,43.3,47.9-50.2,53.2c-1.9,2.6-2.3,5.4-1.1,8.3,7.6,26.5,1.7,54.5-16.5,75-17.5,19.8-43.9,29.7-71,25.7-1.4-.2-3.2-1.1-3.9-1.9s-.8-4.3.1-5.3l32-34.6c1.3-1.4,2.4-4.4,1.9-6l-9.9-33.3Z"/>
    </g>
  </g>
</svg>