<?xml version="1.0" encoding="UTF-8"?>
<svg id="Capa_1" xmlns="http://www.w3.org/2000/svg" version="1.1" viewBox="0 0 500 500">
  <!-- Generator: Adobe Illustrator 30.2.1, SVG Export Plug-In . SVG Version: 2.1.1 Build 1)  -->
  <g id="oW0QxX.tif">
    <g>
      <path d="M326.2,314h-155.6c-9.8-15.3-26-23.9-43.3-24.1s-34,8.7-44,24.1H13.9s0-199.5,0-199.5h337.1s0,179,0,179c-10.6,4.2-18.3,10.7-24.8,20.5Z"/>
      <path d="M485.6,221.9l.5,96.8c0,11.6-7.5,21-19,22.6h-45.7c-.5-32.1-27.9-55.5-60.2-50.9v-147.2c15.6,0,30.6.9,45.9,2,8.4.8,16.1,2.7,23.8,6,26.4,12.5,54.5,38.8,54.7,70.6ZM471,244.1v-19.4c-.2-15.6-7.3-29.5-18.7-39.9-25.5-22.5-40.2-19.5-72.9-20.5v65.5c0,3.9,3.3,6.5,6.8,7.2l75.6,15.1c5.1,1,9.2-3,9.1-8Z"/>
      <path d="M413.9,341.4c0,24.3-19.7,44.1-44.1,44.1s-44.1-19.7-44.1-44.1,19.7-44.1,44.1-44.1,44.1,19.7,44.1,44.1ZM392.6,341.4c0-12.6-10.2-22.8-22.8-22.8s-22.8,10.2-22.8,22.8,10.2,22.8,22.8,22.8,22.8-10.2,22.8-22.8Z"/>
      <path d="M171,341.4c0,24.3-19.7,44.1-44.1,44.1s-44.1-19.7-44.1-44.1,19.7-44.1,44.1-44.1,44.1,19.7,44.1,44.1ZM149.7,341.4c0-12.6-10.2-22.8-22.8-22.8s-22.8,10.2-22.8,22.8,10.2,22.8,22.8,22.8,22.8-10.2,22.8-22.8Z"/>
      <path d="M318.2,341.3h-139.3c-.8-7-1.9-12.8-4.2-19.5h147c-1.6,6.2-3.1,11.5-3.5,19.5Z"/>
      <path d="M75,341.3H21.6c-3.8,0-7.6-3.7-7.6-7.3v-12.3c0,0,64.8,0,64.8,0-1.8,6.4-3.1,12.3-3.8,19.6Z"/>
    </g>
  </g>
</svg>