<svg xmlns="http://www.w3.org/2000/svg" viewBox="0 0 200 140" fill="rgba(255,255,255,0.2)" stroke="none">
  <path d="M45 10 L55 8 L65 5 L80 8 L90 12 L100 10 L110 15 L115 20 L120 18 L130 22 L140 25 L145 30 L150 28 L155 35 L160 40 L158 48 L155 55 L150 60 L145 65 L140 70 L135 72 L130 78 L125 82 L120 85 L115 90 L110 92 L105 95 L100 98 L95 100 L90 102 L85 98 L80 95 L75 90 L70 88 L65 85 L60 80 L55 78 L50 75 L48 70 L45 65 L40 60 L38 55 L35 50 L32 45 L30 40 L28 35 L30 30 L32 25 L35 20 L40 15 Z"/>
  <path d="M95 100 L100 105 L105 110 L110 115 L115 118 L120 120 L125 118 L130 115 L128 110 L125 105 L120 100 L115 98 L110 95 L105 97 Z"/>
</svg>
